<?xml version="1.0" encoding="utf-8"?>
<!-- Generator: Adobe Illustrator 24.0.1, SVG Export Plug-In . SVG Version: 6.00 Build 0)  -->
<svg version="1.1" id="Layer_1" xmlns="http://www.w3.org/2000/svg" xmlns:xlink="http://www.w3.org/1999/xlink" x="0px" y="0px"
	 viewBox="0 0 500 500" style="enable-background:new 0 0 500 500;" xml:space="preserve">
<style type="text/css">
	.st0{fill-rule:evenodd;clip-rule:evenodd;}
</style>
<path class="st0" d="M157.6,66.1l17.1,17.1l49.4-49.4l8.7,8.7c145.9-117.1,357,94.1,211.1,240L282.5,443.8
	c-141,141-362.1-61.1-240-211.2l-8.6-8.6l49.4-49.4l-17.1-17.1L157.6,66.1L157.6,66.1z M285.3,95.1l7.7,7.7l-49.4,49.4l17.1,17.1
	l-91.5,91.5l-17.1-17.1L102.7,293l-7.7-7.7c-52,79.5,60,182.2,135.5,106.6l161.4-161.4C468.2,154.3,363.9,44.4,285.3,95.1
	L285.3,95.1z"/>
</svg>
